<?xml version="1.0" standalone="no"?>
<!DOCTYPE svg PUBLIC "-//W3C//DTD SVG 20010904//EN"
 "http://www.w3.org/TR/2001/REC-SVG-20010904/DTD/svg10.dtd">
<svg version="1.0" xmlns="http://www.w3.org/2000/svg"
 width="700.000000pt" height="700.000000pt" viewBox="0 0 700.000000 700.000000"
 preserveAspectRatio="xMidYMid meet">
<metadata>
Created by potrace 1.11, written by Peter Selinger 2001-2013
</metadata>
<g transform="translate(0.000000,700.000000) scale(0.100000,-0.100000)"
fill="#000000" stroke="none">
<path d="M3548 6976 c-1 -2 -73 -6 -158 -10 -179 -7 -250 -14 -425 -41 -36 -6
-151 -29 -200 -41 -11 -3 -31 -7 -45 -10 -43 -8 -101 -25 -215 -60 -901 -282
-1660 -931 -2078 -1780 -29 -60 -70 -152 -91 -204 -21 -52 -42 -104 -47 -115
-45 -104 -137 -437 -163 -595 -43 -260 -51 -355 -51 -620 0 -247 13 -417 45
-585 5 -27 12 -65 15 -83 3 -19 15 -73 26 -120 253 -1089 1028 -1999 2064
-2425 135 -56 409 -145 495 -161 14 -2 66 -13 115 -24 97 -22 261 -48 365 -57
36 -3 88 -8 115 -10 62 -5 394 -6 455 0 25 2 78 7 118 10 40 4 83 8 95 10 12
2 58 9 102 15 456 67 955 259 1352 522 157 104 241 167 378 284 522 451 912
1079 1086 1749 31 121 31 121 -43 15 -18 -25 -34 -47 -37 -50 -3 -3 -30 -34
-60 -70 -73 -87 -260 -272 -346 -341 -277 -224 -576 -383 -907 -483 -128 -39
-126 -38 -278 -67 -116 -21 -152 -26 -285 -38 -101 -8 -366 -7 -453 3 -98 12
-136 17 -152 21 -8 2 -35 7 -60 10 -116 16 -330 78 -530 154 -162 61 -441 221
-600 345 -149 115 -317 278 -435 421 -81 99 -202 272 -244 350 -12 22 -39 72
-59 111 -100 186 -217 515 -246 694 -3 19 -8 46 -11 60 -3 14 -8 45 -11 70 -3
25 -7 56 -9 70 -22 125 -22 530 0 634 2 12 7 44 11 71 3 28 8 61 10 75 2 14
10 54 19 90 9 36 18 76 21 90 10 51 77 258 110 338 99 239 240 482 376 647 9
11 33 40 53 65 86 105 247 262 373 363 262 210 581 375 905 468 143 42 367 86
452 90 27 1 26 2 -15 15 -53 17 -238 60 -294 68 -21 4 -48 8 -60 11 -39 9 -80
15 -151 21 -38 4 -73 8 -77 10 -3 2 -71 7 -150 10 -78 3 -148 7 -155 9 -6 2
-13 2 -15 1z"/>
</g>
</svg>
